<svg width="3048" height="676" viewBox="0 0 3048 676" fill="none" xmlns="http://www.w3.org/2000/svg">
<g style="mix-blend-mode:exclusion">
<g style="mix-blend-mode:difference" clip-path="url(#clip0_11_4)">
<path d="M15.9732 293.163C36.7804 266.859 58.6174 241.334 82.0518 217.344C103.742 195.14 126.798 174.199 151.619 155.528C175.054 137.887 200.043 122.286 226.546 109.671C252.608 97.2653 280.077 87.8458 308.325 81.8114C315.618 80.2555 322.932 78.9308 330.309 77.8165C337.686 76.7021 345.273 75.1672 352.629 75.4616C366.101 76.0083 378.165 84.9022 382.978 97.4546C384.176 100.608 384.891 103.888 385.164 107.232L385.059 105.886C385.143 107.4 385.143 106.853 385.059 104.267C384.996 90.0325 384.933 75.798 384.891 61.5846V62.3205C384.975 53.5107 385.059 44.7219 385.143 35.9121C385.143 36.669 385.08 37.4049 385.038 38.1408L385.143 36.7952C384.239 46.5932 379.7 56.3281 375.727 65.222C371.251 75.2513 366.038 84.9442 360.553 94.4689C349.981 112.782 338.695 130.675 327.345 148.505C304.857 183.828 281.359 218.521 256.874 252.499C232.389 286.476 206.958 319.781 180.602 352.308C154.246 384.835 126.945 416.626 98.7606 447.618C70.5763 478.61 41.5303 508.782 11.6226 538.092C7.88151 541.75 4.14042 545.409 0.378312 549.046C0.273226 550.119 0.231191 551.212 0.231191 552.305C0.168139 554.913 0.126104 557.52 0.105087 560.127C0 569.042 0 577.957 0 586.851C0 595.766 0 604.681 0.105087 613.574L0.189156 619.483C0.168139 621.207 0.231191 622.931 0.378312 624.634C29.067 596.88 57.0201 568.369 84.1535 539.101C111.287 509.833 137.432 480.082 162.842 449.51C188.252 418.939 212.843 387.694 236.571 355.798C260.3 323.902 283.167 291.375 305.13 258.239C316.164 241.607 326.967 224.829 337.539 207.882C348.258 190.725 359.124 173.526 368.518 155.591C373.352 146.361 377.745 136.899 381.276 127.101C382.831 122.812 384.407 118.438 384.975 113.876C385.332 110.932 385.353 107.946 385.416 104.982C385.837 84.9652 385.711 64.8856 385.5 44.8691C385.395 34.3141 385.542 24.3269 379.573 15.2227C375.622 9.18831 369.779 4.45751 363.033 1.91339C355.53 -0.904065 348.068 -0.168163 340.271 0.777998C332.158 1.76621 324.088 3.02776 316.059 4.56264C300.359 7.5483 284.869 11.5853 269.695 16.6104C239.703 26.5346 211.14 40.4116 184.406 57.1902C156.495 74.7257 130.602 95.352 106.474 117.765C80.2443 142.134 56.0323 168.627 33.1864 196.171C27.3436 203.214 21.6058 210.321 15.9312 217.491C15.8261 218.563 15.784 219.656 15.784 220.75C15.721 223.357 15.6789 225.964 15.6579 228.571C15.5528 237.486 15.5528 246.401 15.5528 255.295C15.5528 264.21 15.5528 273.125 15.6579 282.019L15.742 287.927C15.721 289.651 15.784 291.375 15.9312 293.078L15.9732 293.163Z" fill="#FFF469"/>
<path d="M312.339 322.998C345.042 309.752 377.219 295.223 408.766 279.454C440.313 263.684 471.251 246.674 501.474 228.487C531.697 210.3 560.932 191.103 589.516 170.708C603.892 160.448 618.036 149.872 632.034 139.065C645.275 128.846 658.81 118.438 674.426 112.109C687.625 106.748 702.064 104.961 715.977 108.682C729.134 112.215 740.525 120.919 745.233 133.997C746.431 137.34 747.125 140.831 747.419 144.384L747.314 143.038C747.65 148.821 747.629 144.111 747.188 128.909C747.23 111.668 747.272 94.4268 747.314 77.1857C747.377 72.6231 747.314 75.6928 747.272 76.639L747.377 75.2933C745.612 95.8566 732.539 114.17 719.634 129.456C703.598 148.463 686.637 166.798 670.138 185.405C636.426 223.441 602.715 261.477 569.003 299.512C552.147 318.52 535.291 337.548 518.435 356.555C503.702 373.187 488.737 389.692 475.37 407.501C462.802 424.258 451.6 442.319 444.412 462.084C441.091 471.209 438.527 480.691 437.392 490.342C436.741 495.809 436.572 501.297 436.488 506.805C436.194 524.53 436.236 542.276 436.341 560.001C436.383 567.255 436.341 574.53 436.656 581.783C438.002 613.827 452.546 648.687 483.084 662.964C486.72 664.667 490.503 665.992 494.37 667.001C494.37 667.001 494.664 654.196 494.643 655.92C494.748 647.005 494.748 638.09 494.748 629.197C494.748 620.303 494.748 611.367 494.643 602.473C494.643 601.274 494.98 591.56 494.37 591.392C467.363 584.307 449.141 560.863 441.364 534.959C439.031 527.222 437.602 519.232 436.972 511.179L437.077 512.524C437.014 511.536 436.951 510.569 436.888 509.581C436.867 509.097 436.846 508.593 436.825 508.109C436.467 496.713 436.467 507.142 436.825 539.353C437.098 550.791 437.077 562.229 436.804 573.667C436.804 573.184 436.846 572.7 436.867 572.196C436.909 571.229 436.972 570.24 437.035 569.273L436.93 570.619C439.305 539.332 455.173 510.506 473.416 485.696C483.252 472.302 494.076 459.687 505.047 447.239C517.594 433.005 530.205 418.855 542.794 404.641C568.751 375.352 594.707 346.063 620.684 316.774C646.641 287.486 672.597 258.197 698.575 228.908C710.281 215.704 722.682 202.836 732.497 188.097C736.847 181.558 740.736 174.64 743.531 167.281C746.999 158.156 747.65 149.178 747.755 139.485C747.966 122.959 747.945 106.433 747.839 89.9063C747.797 82.8836 747.987 75.7559 747.419 68.7543C747.125 65.201 746.452 61.7317 745.233 58.3676C742.9 51.8916 738.865 46.1516 733.527 41.7782C723.207 33.3679 709.231 30.2982 696.158 31.1812C680.164 32.2536 665.367 39.8018 652.252 48.5696C637.982 58.0942 624.762 69.1748 610.995 79.4144C582.685 100.482 553.555 120.415 523.689 139.191C493.824 157.967 463.222 175.565 431.97 191.944C400.717 208.323 368.833 223.462 336.404 237.339C328.417 240.766 320.388 244.088 312.318 247.368C311.813 247.579 312.045 259.879 312.045 258.449C311.939 267.364 311.939 276.279 311.939 285.173C311.939 294.067 311.939 303.003 312.045 311.896C312.045 313.095 312.696 322.809 312.318 322.977L312.339 322.998Z" fill="#FFF469"/>
<path d="M717.49 283.344C759.903 253.529 802.317 223.714 844.73 193.9C865.789 179.098 886.827 164.296 907.887 149.514C928.694 134.88 949.207 119.679 970.413 105.634C979.745 99.452 991.452 94.3217 1002 100.819C1010.28 105.907 1014.74 115.705 1015.54 125.146L1015.43 123.8C1016.17 136.184 1016.17 124.809 1015.47 89.654C1016.17 54.4989 1016.17 43.1239 1015.43 55.4871L1015.54 54.1415C1014.59 65.3902 1009.51 75.5247 1003.6 84.9442C996.937 95.5623 989.728 105.844 982.772 116.252C968.122 138.139 953.452 160.027 938.803 181.894C909.694 225.333 880.606 268.794 851.497 312.233C836.848 334.121 822.178 356.009 807.529 377.875C792.88 399.742 778.567 420.053 765.158 441.794C752.547 462.231 741.387 483.593 732.581 505.922C729.176 514.564 726.612 523.29 726.108 532.604C725.582 542.234 725.792 551.948 725.771 561.578C725.708 577.683 725.414 593.852 726.066 609.937C726.213 613.49 726.591 617.023 727.474 620.471C733.821 644.861 760.03 653.986 776.549 670.008C778.483 671.879 780.269 673.876 781.867 676.042C781.972 674.97 782.014 673.876 782.014 672.783C782.077 670.176 782.119 667.569 782.14 664.962C782.245 656.047 782.245 647.132 782.245 638.238C782.245 629.344 782.245 620.408 782.14 611.514L782.056 605.606C782.077 603.882 782.014 602.157 781.867 600.454C768.479 582.477 744.54 575.581 732.413 556.279C728.84 550.602 726.801 544.21 726.255 537.545L726.36 538.891C726.339 538.491 726.297 538.092 726.276 537.692C725.771 525.582 725.771 536.893 726.276 571.649C725.729 606.405 725.729 617.717 726.318 605.564C726.339 605.122 726.381 604.681 726.402 604.239L726.297 605.585C727.369 593.032 732.476 581.258 737.478 569.82C743.405 556.237 750.172 543.033 757.571 530.165C773.334 502.748 791.871 476.886 809.462 450.625C845.843 396.315 882.224 342.005 918.606 287.696C936.786 260.552 954.987 233.386 973.167 206.242C982.246 192.68 991.41 179.182 1000.41 165.578C1008.08 153.972 1014.95 141.84 1015.73 127.648C1016.06 121.361 1015.94 115.032 1015.98 108.745C1016.08 93.4807 1016.06 78.195 1015.92 62.9302C1015.85 57.1481 1016.13 51.0717 1014.99 45.3527C1013.92 39.9701 1011.61 34.7767 1008.08 30.5505C1004.78 26.6187 1000.36 23.591 995.298 22.5397C988.719 21.1941 982.162 23.3387 976.424 26.4295C969.888 29.9408 963.94 34.5664 957.887 38.8347C950.972 43.6916 944.058 48.5486 937.143 53.4055C923.944 62.6779 910.745 71.9503 897.546 81.2437C844.141 118.796 790.715 156.348 737.31 193.879C730.71 198.526 724.111 203.151 717.511 207.798C716.818 208.281 717.238 219.888 717.238 218.878C717.133 227.793 717.133 236.708 717.133 245.602C717.133 254.496 717.133 263.432 717.238 272.326L717.322 278.234C717.301 279.958 717.364 281.682 717.511 283.386L717.49 283.344Z" fill="#FFF469"/>
</g>
<g style="mix-blend-mode:difference" clip-path="url(#clip1_11_4)">
<path d="M1031.97 293.163C1052.78 266.859 1074.62 241.334 1098.05 217.344C1119.74 195.14 1142.8 174.199 1167.62 155.528C1191.05 137.887 1216.04 122.286 1242.55 109.671C1268.61 97.2653 1296.08 87.8458 1324.32 81.8114C1331.62 80.2555 1338.93 78.9308 1346.31 77.8165C1353.69 76.7021 1361.27 75.1672 1368.63 75.4616C1382.1 76.0083 1394.17 84.9022 1398.98 97.4546C1400.18 100.608 1400.89 103.888 1401.16 107.232L1401.06 105.886C1401.14 107.4 1401.14 106.853 1401.06 104.267C1401 90.0325 1400.93 75.798 1400.89 61.5846V62.3205C1400.97 53.5107 1401.06 44.7219 1401.14 35.9121C1401.14 36.669 1401.08 37.4049 1401.04 38.1408L1401.14 36.7952C1400.24 46.5932 1395.7 56.3281 1391.73 65.222C1387.25 75.2513 1382.04 84.9442 1376.55 94.4689C1365.98 112.782 1354.69 130.675 1343.35 148.505C1320.86 183.828 1297.36 218.521 1272.87 252.499C1248.39 286.476 1222.96 319.781 1196.6 352.308C1170.25 384.835 1142.94 416.626 1114.76 447.618C1086.58 478.61 1057.53 508.782 1027.62 538.092C1023.88 541.75 1020.14 545.409 1016.38 549.046C1016.27 550.119 1016.23 551.212 1016.23 552.305C1016.17 554.913 1016.13 557.52 1016.11 560.127C1016 569.042 1016 577.957 1016 586.851C1016 595.766 1016 604.681 1016.11 613.574L1016.19 619.483C1016.17 621.207 1016.23 622.931 1016.38 624.634C1045.07 596.88 1073.02 568.369 1100.15 539.101C1127.29 509.833 1153.43 480.082 1178.84 449.51C1204.25 418.939 1228.84 387.694 1252.57 355.798C1276.3 323.902 1299.17 291.375 1321.13 258.239C1332.16 241.607 1342.97 224.829 1353.54 207.882C1364.26 190.725 1375.12 173.526 1384.52 155.591C1389.35 146.361 1393.74 136.899 1397.28 127.101C1398.83 122.812 1400.41 118.438 1400.97 113.876C1401.33 110.932 1401.35 107.946 1401.42 104.982C1401.84 84.9652 1401.71 64.8856 1401.5 44.8691C1401.4 34.3141 1401.54 24.3269 1395.57 15.2227C1391.62 9.18831 1385.78 4.45751 1379.03 1.91339C1371.53 -0.904065 1364.07 -0.168163 1356.27 0.777998C1348.16 1.76621 1340.09 3.02776 1332.06 4.56264C1316.36 7.5483 1300.87 11.5853 1285.69 16.6104C1255.7 26.5346 1227.14 40.4116 1200.41 57.1902C1172.5 74.7257 1146.6 95.352 1122.47 117.765C1096.24 142.134 1072.03 168.627 1049.19 196.171C1043.34 203.214 1037.61 210.321 1031.93 217.491C1031.83 218.563 1031.78 219.656 1031.78 220.75C1031.72 223.357 1031.68 225.964 1031.66 228.571C1031.55 237.486 1031.55 246.401 1031.55 255.295C1031.55 264.21 1031.55 273.125 1031.66 282.019L1031.74 287.927C1031.72 289.651 1031.78 291.375 1031.93 293.078L1031.97 293.163Z" fill="#FFF469"/>
<path d="M1328.34 322.998C1361.04 309.752 1393.22 295.223 1424.77 279.454C1456.31 263.684 1487.25 246.674 1517.47 228.487C1547.7 210.3 1576.93 191.103 1605.52 170.708C1619.89 160.448 1634.04 149.872 1648.03 139.065C1661.27 128.846 1674.81 118.438 1690.43 112.109C1703.62 106.748 1718.06 104.961 1731.98 108.682C1745.13 112.215 1756.53 120.919 1761.23 133.997C1762.43 137.34 1763.12 140.831 1763.42 144.384L1763.31 143.038C1763.65 148.821 1763.63 144.111 1763.19 128.909C1763.23 111.668 1763.27 94.4268 1763.31 77.1857C1763.38 72.6231 1763.31 75.6928 1763.27 76.639L1763.38 75.2933C1761.61 95.8566 1748.54 114.17 1735.63 129.456C1719.6 148.463 1702.64 166.798 1686.14 185.405C1652.43 223.441 1618.71 261.477 1585 299.512C1568.15 318.52 1551.29 337.548 1534.43 356.555C1519.7 373.187 1504.74 389.692 1491.37 407.501C1478.8 424.258 1467.6 442.319 1460.41 462.084C1457.09 471.209 1454.53 480.691 1453.39 490.342C1452.74 495.809 1452.57 501.297 1452.49 506.805C1452.19 524.53 1452.24 542.276 1452.34 560.001C1452.38 567.255 1452.34 574.53 1452.66 581.783C1454 613.827 1468.55 648.687 1499.08 662.964C1502.72 664.667 1506.5 665.992 1510.37 667.001C1510.37 667.001 1510.66 654.196 1510.64 655.92C1510.75 647.005 1510.75 638.09 1510.75 629.197C1510.75 620.303 1510.75 611.367 1510.64 602.473C1510.64 601.274 1510.98 591.56 1510.37 591.392C1483.36 584.307 1465.14 560.863 1457.36 534.959C1455.03 527.222 1453.6 519.232 1452.97 511.179L1453.08 512.524C1453.01 511.536 1452.95 510.569 1452.89 509.581C1452.87 509.097 1452.85 508.593 1452.82 508.109C1452.47 496.713 1452.47 507.142 1452.82 539.353C1453.1 550.791 1453.08 562.229 1452.8 573.667C1452.8 573.184 1452.85 572.7 1452.87 572.196C1452.91 571.229 1452.97 570.24 1453.03 569.273L1452.93 570.619C1455.3 539.332 1471.17 510.506 1489.42 485.696C1499.25 472.302 1510.08 459.687 1521.05 447.239C1533.59 433.005 1546.2 418.855 1558.79 404.641C1584.75 375.352 1610.71 346.063 1636.68 316.774C1662.64 287.486 1688.6 258.197 1714.57 228.908C1726.28 215.704 1738.68 202.836 1748.5 188.097C1752.85 181.558 1756.74 174.64 1759.53 167.281C1763 158.156 1763.65 149.178 1763.76 139.485C1763.97 122.959 1763.94 106.433 1763.84 89.9063C1763.8 82.8836 1763.99 75.7559 1763.42 68.7543C1763.12 65.201 1762.45 61.7317 1761.23 58.3676C1758.9 51.8916 1754.87 46.1516 1749.53 41.7782C1739.21 33.3679 1725.23 30.2982 1712.16 31.1812C1696.16 32.2536 1681.37 39.8018 1668.25 48.5696C1653.98 58.0942 1640.76 69.1748 1627 79.4144C1598.69 100.482 1569.55 120.415 1539.69 139.191C1509.82 157.967 1479.22 175.565 1447.97 191.944C1416.72 208.323 1384.83 223.462 1352.4 237.339C1344.42 240.766 1336.39 244.088 1328.32 247.368C1327.81 247.579 1328.04 259.879 1328.04 258.449C1327.94 267.364 1327.94 276.279 1327.94 285.173C1327.94 294.067 1327.94 303.003 1328.04 311.896C1328.04 313.095 1328.7 322.809 1328.32 322.977L1328.34 322.998Z" fill="#FFF469"/>
<path d="M1733.49 283.344C1775.9 253.529 1818.32 223.714 1860.73 193.9C1881.79 179.098 1902.83 164.296 1923.89 149.514C1944.69 134.88 1965.21 119.679 1986.41 105.634C1995.75 99.452 2007.45 94.3217 2018 100.819C2026.28 105.907 2030.74 115.705 2031.54 125.146L2031.43 123.8C2032.17 136.184 2032.17 124.809 2031.47 89.654C2032.17 54.4989 2032.17 43.1239 2031.43 55.4871L2031.54 54.1415C2030.59 65.3902 2025.51 75.5247 2019.6 84.9442C2012.94 95.5623 2005.73 105.844 1998.77 116.252C1984.12 138.139 1969.45 160.027 1954.8 181.894C1925.69 225.333 1896.61 268.794 1867.5 312.233C1852.85 334.121 1838.18 356.009 1823.53 377.875C1808.88 399.742 1794.57 420.053 1781.16 441.794C1768.55 462.231 1757.39 483.593 1748.58 505.922C1745.18 514.564 1742.61 523.29 1742.11 532.604C1741.58 542.234 1741.79 551.948 1741.77 561.578C1741.71 577.683 1741.41 593.852 1742.07 609.937C1742.21 613.49 1742.59 617.023 1743.47 620.471C1749.82 644.861 1776.03 653.986 1792.55 670.008C1794.48 671.879 1796.27 673.876 1797.87 676.042C1797.97 674.97 1798.01 673.876 1798.01 672.783C1798.08 670.176 1798.12 667.569 1798.14 664.962C1798.25 656.047 1798.25 647.132 1798.25 638.238C1798.25 629.344 1798.25 620.408 1798.14 611.514L1798.06 605.606C1798.08 603.882 1798.01 602.157 1797.87 600.454C1784.48 582.477 1760.54 575.581 1748.41 556.279C1744.84 550.602 1742.8 544.21 1742.25 537.545L1742.36 538.891C1742.34 538.491 1742.3 538.092 1742.28 537.692C1741.77 525.582 1741.77 536.893 1742.28 571.649C1741.73 606.405 1741.73 617.717 1742.32 605.564C1742.34 605.122 1742.38 604.681 1742.4 604.239L1742.3 605.585C1743.37 593.032 1748.48 581.258 1753.48 569.82C1759.41 556.237 1766.17 543.033 1773.57 530.165C1789.33 502.748 1807.87 476.886 1825.46 450.625C1861.84 396.315 1898.22 342.005 1934.61 287.696C1952.79 260.552 1970.99 233.386 1989.17 206.242C1998.25 192.68 2007.41 179.182 2016.41 165.578C2024.08 153.972 2030.95 141.84 2031.73 127.648C2032.06 121.361 2031.94 115.032 2031.98 108.745C2032.08 93.4807 2032.06 78.195 2031.92 62.9302C2031.85 57.1481 2032.13 51.0717 2030.99 45.3527C2029.92 39.9701 2027.61 34.7767 2024.08 30.5505C2020.78 26.6187 2016.36 23.591 2011.3 22.5397C2004.72 21.1941 1998.16 23.3387 1992.42 26.4295C1985.89 29.9408 1979.94 34.5664 1973.89 38.8347C1966.97 43.6916 1960.06 48.5486 1953.14 53.4055C1939.94 62.6779 1926.75 71.9503 1913.55 81.2437C1860.14 118.796 1806.72 156.348 1753.31 193.879C1746.71 198.526 1740.11 203.151 1733.51 207.798C1732.82 208.281 1733.24 219.888 1733.24 218.878C1733.13 227.793 1733.13 236.708 1733.13 245.602C1733.13 254.496 1733.13 263.432 1733.24 272.326L1733.32 278.234C1733.3 279.958 1733.36 281.682 1733.51 283.386L1733.49 283.344Z" fill="#FFF469"/>
</g>
<g style="mix-blend-mode:difference" clip-path="url(#clip2_11_4)">
<path d="M2047.97 293.163C2068.78 266.859 2090.62 241.334 2114.05 217.344C2135.74 195.14 2158.8 174.199 2183.62 155.528C2207.05 137.887 2232.04 122.286 2258.55 109.671C2284.61 97.2653 2312.08 87.8458 2340.32 81.8114C2347.62 80.2555 2354.93 78.9308 2362.31 77.8165C2369.69 76.7021 2377.27 75.1672 2384.63 75.4616C2398.1 76.0083 2410.17 84.9022 2414.98 97.4546C2416.18 100.608 2416.89 103.888 2417.16 107.232L2417.06 105.886C2417.14 107.4 2417.14 106.853 2417.06 104.267C2417 90.0325 2416.93 75.798 2416.89 61.5846V62.3205C2416.97 53.5107 2417.06 44.7219 2417.14 35.9121C2417.14 36.669 2417.08 37.4049 2417.04 38.1408L2417.14 36.7952C2416.24 46.5932 2411.7 56.3281 2407.73 65.222C2403.25 75.2513 2398.04 84.9442 2392.55 94.4689C2381.98 112.782 2370.69 130.675 2359.35 148.505C2336.86 183.828 2313.36 218.521 2288.87 252.499C2264.39 286.476 2238.96 319.781 2212.6 352.308C2186.25 384.835 2158.94 416.626 2130.76 447.618C2102.58 478.61 2073.53 508.782 2043.62 538.092C2039.88 541.75 2036.14 545.409 2032.38 549.046C2032.27 550.119 2032.23 551.212 2032.23 552.305C2032.17 554.913 2032.13 557.52 2032.11 560.127C2032 569.042 2032 577.957 2032 586.851C2032 595.766 2032 604.681 2032.11 613.574L2032.19 619.483C2032.17 621.207 2032.23 622.931 2032.38 624.634C2061.07 596.88 2089.02 568.369 2116.15 539.101C2143.29 509.833 2169.43 480.082 2194.84 449.51C2220.25 418.939 2244.84 387.694 2268.57 355.798C2292.3 323.902 2315.17 291.375 2337.13 258.239C2348.16 241.607 2358.97 224.829 2369.54 207.882C2380.26 190.725 2391.12 173.526 2400.52 155.591C2405.35 146.361 2409.74 136.899 2413.28 127.101C2414.83 122.812 2416.41 118.438 2416.97 113.876C2417.33 110.932 2417.35 107.946 2417.42 104.982C2417.84 84.9652 2417.71 64.8856 2417.5 44.8691C2417.4 34.3141 2417.54 24.3269 2411.57 15.2227C2407.62 9.18831 2401.78 4.45751 2395.03 1.91339C2387.53 -0.904065 2380.07 -0.168163 2372.27 0.777998C2364.16 1.76621 2356.09 3.02776 2348.06 4.56264C2332.36 7.5483 2316.87 11.5853 2301.69 16.6104C2271.7 26.5346 2243.14 40.4116 2216.41 57.1902C2188.5 74.7257 2162.6 95.352 2138.47 117.765C2112.24 142.134 2088.03 168.627 2065.19 196.171C2059.34 203.214 2053.61 210.321 2047.93 217.491C2047.83 218.563 2047.78 219.656 2047.78 220.75C2047.72 223.357 2047.68 225.964 2047.66 228.571C2047.55 237.486 2047.55 246.401 2047.55 255.295C2047.55 264.21 2047.55 273.125 2047.66 282.019L2047.74 287.927C2047.72 289.651 2047.78 291.375 2047.93 293.078L2047.97 293.163Z" fill="#FFF469"/>
<path d="M2344.34 322.998C2377.04 309.752 2409.22 295.223 2440.77 279.454C2472.31 263.684 2503.25 246.674 2533.47 228.487C2563.7 210.3 2592.93 191.103 2621.52 170.708C2635.89 160.448 2650.04 149.872 2664.03 139.065C2677.27 128.846 2690.81 118.438 2706.43 112.109C2719.62 106.748 2734.06 104.961 2747.98 108.682C2761.13 112.215 2772.53 120.919 2777.23 133.997C2778.43 137.34 2779.12 140.831 2779.42 144.384L2779.31 143.038C2779.65 148.821 2779.63 144.111 2779.19 128.909C2779.23 111.668 2779.27 94.4268 2779.31 77.1857C2779.38 72.6231 2779.31 75.6928 2779.27 76.639L2779.38 75.2933C2777.61 95.8566 2764.54 114.17 2751.63 129.456C2735.6 148.463 2718.64 166.798 2702.14 185.405C2668.43 223.441 2634.71 261.477 2601 299.512C2584.15 318.52 2567.29 337.548 2550.43 356.555C2535.7 373.187 2520.74 389.692 2507.37 407.501C2494.8 424.258 2483.6 442.319 2476.41 462.084C2473.09 471.209 2470.53 480.691 2469.39 490.342C2468.74 495.809 2468.57 501.297 2468.49 506.805C2468.19 524.53 2468.24 542.276 2468.34 560.001C2468.38 567.255 2468.34 574.53 2468.66 581.783C2470 613.827 2484.55 648.687 2515.08 662.964C2518.72 664.667 2522.5 665.992 2526.37 667.001C2526.37 667.001 2526.66 654.196 2526.64 655.92C2526.75 647.005 2526.75 638.09 2526.75 629.197C2526.75 620.303 2526.75 611.367 2526.64 602.473C2526.64 601.274 2526.98 591.56 2526.37 591.392C2499.36 584.307 2481.14 560.863 2473.36 534.959C2471.03 527.222 2469.6 519.232 2468.97 511.179L2469.08 512.524C2469.01 511.536 2468.95 510.569 2468.89 509.581C2468.87 509.097 2468.85 508.593 2468.82 508.109C2468.47 496.713 2468.47 507.142 2468.82 539.353C2469.1 550.791 2469.08 562.229 2468.8 573.667C2468.8 573.184 2468.85 572.7 2468.87 572.196C2468.91 571.229 2468.97 570.24 2469.03 569.273L2468.93 570.619C2471.3 539.332 2487.17 510.506 2505.42 485.696C2515.25 472.302 2526.08 459.687 2537.05 447.239C2549.59 433.005 2562.2 418.855 2574.79 404.641C2600.75 375.352 2626.71 346.063 2652.68 316.774C2678.64 287.486 2704.6 258.197 2730.57 228.908C2742.28 215.704 2754.68 202.836 2764.5 188.097C2768.85 181.558 2772.74 174.64 2775.53 167.281C2779 158.156 2779.65 149.178 2779.76 139.485C2779.97 122.959 2779.94 106.433 2779.84 89.9063C2779.8 82.8836 2779.99 75.7559 2779.42 68.7543C2779.12 65.201 2778.45 61.7317 2777.23 58.3676C2774.9 51.8916 2770.87 46.1516 2765.53 41.7782C2755.21 33.3679 2741.23 30.2982 2728.16 31.1812C2712.16 32.2536 2697.37 39.8018 2684.25 48.5696C2669.98 58.0942 2656.76 69.1748 2643 79.4144C2614.69 100.482 2585.55 120.415 2555.69 139.191C2525.82 157.967 2495.22 175.565 2463.97 191.944C2432.72 208.323 2400.83 223.462 2368.4 237.339C2360.42 240.766 2352.39 244.088 2344.32 247.368C2343.81 247.579 2344.04 259.879 2344.04 258.449C2343.94 267.364 2343.94 276.279 2343.94 285.173C2343.94 294.067 2343.94 303.003 2344.04 311.896C2344.04 313.095 2344.7 322.809 2344.32 322.977L2344.34 322.998Z" fill="#FFF469"/>
<path d="M2749.49 283.344C2791.9 253.529 2834.32 223.714 2876.73 193.9C2897.79 179.098 2918.83 164.296 2939.89 149.514C2960.69 134.88 2981.21 119.679 3002.41 105.634C3011.75 99.452 3023.45 94.3217 3034 100.819C3042.28 105.907 3046.74 115.705 3047.54 125.146L3047.43 123.8C3048.17 136.184 3048.17 124.809 3047.47 89.654C3048.17 54.4989 3048.17 43.1239 3047.43 55.4871L3047.54 54.1415C3046.59 65.3902 3041.51 75.5247 3035.6 84.9442C3028.94 95.5623 3021.73 105.844 3014.77 116.252C3000.12 138.139 2985.45 160.027 2970.8 181.894C2941.69 225.333 2912.61 268.794 2883.5 312.233C2868.85 334.121 2854.18 356.009 2839.53 377.875C2824.88 399.742 2810.57 420.053 2797.16 441.794C2784.55 462.231 2773.39 483.593 2764.58 505.922C2761.18 514.564 2758.61 523.29 2758.11 532.604C2757.58 542.234 2757.79 551.948 2757.77 561.578C2757.71 577.683 2757.41 593.852 2758.07 609.937C2758.21 613.49 2758.59 617.023 2759.47 620.471C2765.82 644.861 2792.03 653.986 2808.55 670.008C2810.48 671.879 2812.27 673.876 2813.87 676.042C2813.97 674.97 2814.01 673.876 2814.01 672.783C2814.08 670.176 2814.12 667.569 2814.14 664.962C2814.25 656.047 2814.25 647.132 2814.25 638.238C2814.25 629.344 2814.25 620.408 2814.14 611.514L2814.06 605.606C2814.08 603.882 2814.01 602.157 2813.87 600.454C2800.48 582.477 2776.54 575.581 2764.41 556.279C2760.84 550.602 2758.8 544.21 2758.25 537.545L2758.36 538.891C2758.34 538.491 2758.3 538.092 2758.28 537.692C2757.77 525.582 2757.77 536.893 2758.28 571.649C2757.73 606.405 2757.73 617.717 2758.32 605.564C2758.34 605.122 2758.38 604.681 2758.4 604.239L2758.3 605.585C2759.37 593.032 2764.48 581.258 2769.48 569.82C2775.41 556.237 2782.17 543.033 2789.57 530.165C2805.33 502.748 2823.87 476.886 2841.46 450.625C2877.84 396.315 2914.22 342.005 2950.61 287.696C2968.79 260.552 2986.99 233.386 3005.17 206.242C3014.25 192.68 3023.41 179.182 3032.41 165.578C3040.08 153.972 3046.95 141.84 3047.73 127.648C3048.06 121.361 3047.94 115.032 3047.98 108.745C3048.08 93.4807 3048.06 78.195 3047.92 62.9302C3047.85 57.1481 3048.13 51.0717 3046.99 45.3527C3045.92 39.9701 3043.61 34.7767 3040.08 30.5505C3036.78 26.6187 3032.36 23.591 3027.3 22.5397C3020.72 21.1941 3014.16 23.3387 3008.42 26.4295C3001.89 29.9408 2995.94 34.5664 2989.89 38.8347C2982.97 43.6916 2976.06 48.5486 2969.14 53.4055C2955.94 62.6779 2942.75 71.9503 2929.55 81.2437C2876.14 118.796 2822.72 156.348 2769.31 193.879C2762.71 198.526 2756.11 203.151 2749.51 207.798C2748.82 208.281 2749.24 219.888 2749.24 218.878C2749.13 227.793 2749.13 236.708 2749.13 245.602C2749.13 254.496 2749.13 263.432 2749.24 272.326L2749.32 278.234C2749.3 279.958 2749.36 281.682 2749.51 283.386L2749.49 283.344Z" fill="#FFF469"/>
</g>
</g>
<defs>
<clipPath id="clip0_11_4">
<rect width="1016" height="676" fill="white"/>
</clipPath>
<clipPath id="clip1_11_4">
<rect width="1016" height="676" fill="white" transform="translate(1016)"/>
</clipPath>
<clipPath id="clip2_11_4">
<rect width="1016" height="676" fill="white" transform="translate(2032)"/>
</clipPath>
</defs>
</svg>
